# xmcd
#
# Track frame offsets: 
#        150
#        3800
#        22177
#        36087
#        47632
#        59235
#        69697
#        85065
#        101004
#        111785
#        126390
#        141082
#        154242
#        169172
#        183790
#        199407
#        201525
#        221947
#        242345
#        256272
#        260172
#        265620
#        273165
#        279560
#        290435
#        303615
#        306805
#        309294
#        312675
#
# Disc length: 4307 seconds
#
# Revision: 2
# Processed by: cddbd v1.5.2PL0 Copyright (c) Steve Scherf et al.
# Submitted via: ExactAudioCopy v0.99pb4
#
DISCID=bf10d11d
DTITLE=Don Wiliams - An Evening With Don Williams -- Best of Live
DYEAR=1994
DGENRE=Vocal
TTITLE0=Introduction
TTITLE1=Good Ole Boys Like Me
TTITLE2=She's In Love With A Rodeo Man
TTITLE3=Some Broken Hearts Never Mend
TTITLE4=The Ties That Bend
TTITLE5=Louisiana Saturday Night
TTITLE6=Till The Rivers All Run Dry
TTITLE7=I Recall A Gypsy Woman
TTITLE8=It Musb Be Love
TTITLE9=Lay Down Beside Me
TTITLE10=Lord, I Hope This Day Is Good
TTITLE11=(I'm Just A) Country Boy
TTITLE12=Tulsa Time
TTITLE13=Amanda
TTITLE14=You're My Best Friend
TTITLE15=Dialogue
TTITLE16=I Believe In You
TTITLE17=Interview With Don Williams
TTITLE18=Interview With Don Williams
TTITLE19=Interview With Don Williams
TTITLE20=Interview With Don Williams
TTITLE21=Interview With Don Williams
TTITLE22=Interview With Don Williams
TTITLE23=Interview With Don Williams
TTITLE24=Interview With Don Williams
TTITLE25=Interview With Don Williams
TTITLE26=Interview With Don Williams
TTITLE27=Interview With Don Williams
TTITLE28=Interview With Don Williams
EXTD=
EXTT0=
EXTT1=
EXTT2=
EXTT3=
EXTT4=
EXTT5=
EXTT6=
EXTT7=
EXTT8=
EXTT9=
EXTT10=
EXTT11=
EXTT12=
EXTT13=
EXTT14=
EXTT15=
EXTT16=
EXTT17=
EXTT18=
EXTT19=
EXTT20=
EXTT21=
EXTT22=
EXTT23=
EXTT24=
EXTT25=
EXTT26=
EXTT27=
EXTT28=
PLAYORDER=
